<?xml version="1.0" encoding="UTF-8"?>
<svg xmlns="http://www.w3.org/2000/svg" xmlns:xlink="http://www.w3.org/1999/xlink" viewBox="0 0 96 96" width="96px" height="96px">
<g id="surface31025170">
<path style=" stroke:none;fill-rule:nonzero;fill:rgb(100%,100%,100%);fill-opacity:1;" d="M 48 28.175781 C 22.855469 28.175781 2.214844 47.433594 0 72 L 96 72 C 93.785156 47.433594 73.144531 28.175781 48 28.175781 Z M 66.359375 54.15625 C 66.359375 51.949219 68.148438 50.160156 70.355469 50.160156 C 72.5625 50.160156 74.355469 51.949219 74.355469 54.15625 C 74.355469 56.367188 72.5625 58.15625 70.355469 58.15625 C 68.148438 58.15625 66.359375 56.367188 66.359375 54.15625 Z M 25.644531 58.15625 C 23.4375 58.15625 21.644531 56.367188 21.644531 54.15625 C 21.644531 51.949219 23.4375 50.160156 25.644531 50.160156 C 27.851562 50.160156 29.640625 51.949219 29.640625 54.15625 C 29.640625 56.367188 27.851562 58.15625 25.644531 58.15625 Z M 25.644531 58.15625 "/>
<path style=" stroke:none;fill-rule:nonzero;fill:rgb(100%,100%,100%);fill-opacity:1;" d="M 68.074219 38.625 C 67.796875 38.625 67.515625 38.554688 67.257812 38.40625 C 66.46875 37.953125 66.203125 36.949219 66.652344 36.160156 L 77.046875 18.144531 C 77.503906 17.359375 78.507812 17.089844 79.292969 17.542969 C 80.078125 17.996094 80.347656 19.003906 79.894531 19.789062 L 69.5 37.804688 C 69.195312 38.332031 68.644531 38.625 68.074219 38.625 Z M 68.074219 38.625 "/>
<path style=" stroke:none;fill-rule:nonzero;fill:rgb(100%,100%,100%);fill-opacity:1;" d="M 27.925781 38.625 C 27.355469 38.625 26.804688 38.328125 26.5 37.804688 L 16.109375 19.789062 C 15.652344 19.003906 15.925781 17.996094 16.707031 17.542969 C 17.492188 17.089844 18.496094 17.359375 18.953125 18.144531 L 29.347656 36.160156 C 29.800781 36.949219 29.53125 37.953125 28.742188 38.40625 C 28.484375 38.554688 28.203125 38.625 27.925781 38.625 Z M 27.925781 38.625 "/>
</g>
</svg>
